<?xml version="1.0" encoding="UTF-8"?>
<svg width="300px" height="300px" viewBox="0 0 300 300" version="1.1" xmlns="http://www.w3.org/2000/svg" xmlns:xlink="http://www.w3.org/1999/xlink">
    <title>beeposter-logo-fav</title>
    <g id="beeposter-logo-fav" stroke="none" stroke-width="1" fill="none" fill-rule="evenodd">
        <g fill-rule="nonzero">
            <path d="M150,0 C232.845,0 300,67.155 300,150 C300,232.845 232.845,300 150,300 C67.155,300 0,232.845 0,150 C0,67.155 67.155,0 150,0 Z" id="路径" fill="#FFC90C"></path>
            <path d="M81.6872851,44.008252 C104.221414,45.4325047 119.475286,53.1159731 126.293305,67.602122 C128.013321,71.213534 126.490342,75.5018722 122.845776,77.3095284 C121.101618,78.1294417 119.089582,78.2231719 117.272899,77.5691394 C115.456217,76.9151069 113.99144,75.5696729 113.215806,73.8425975 C109.055659,64.9410183 98.6167719,59.6750315 80.8013279,58.5693616 C76.7422974,58.2506749 73.7117035,54.799231 74.0218292,50.8484129 C74.0966791,48.9490428 74.9488073,47.157611 76.3885266,45.8728979 C77.8282459,44.5881848 79.7360613,43.91682 81.6872851,44.008252 L81.6872851,44.008252 Z M216.348883,44.0065141 C193.788913,45.4487856 178.53059,53.1284129 171.710582,67.60732 C169.987207,71.2120188 171.501506,75.4964779 175.139851,77.3098736 C176.884518,78.129377 178.897141,78.2230603 180.714354,77.5693548 C182.531567,76.9156493 183.996771,75.5708879 184.772631,73.8446759 C188.953258,64.9475467 199.395191,59.6841923 217.215834,58.5790752 C221.268329,58.250854 224.2886,54.8040963 223.978045,50.8619863 C223.907975,48.967056 223.063118,47.1776346 221.63087,45.8906347 C220.198623,44.6036347 218.29739,43.9254519 216.348883,44.0065141 Z" id="形状" fill="#FFFFFF" opacity="0.5"></path>
            <path d="M71.7845304,132.120482 L110.569061,132.120482 C136.425414,132.120482 149.353591,144.678715 149.353591,169.795181 L149.353591,169.795181 C149.353591,194.911647 136.425414,207.46988 110.569061,207.46988 L71.7845304,207.46988 C45.9281768,207.46988 33,194.911647 33,169.795181 L33,169.795181 C33,144.678715 45.9281768,132.120482 71.7845304,132.120482 L71.7845304,132.120482 Z" id="路径" stroke="#000000" fill="#FFF8F4"></path>
            <path d="M228.21547,132.120482 L189.430939,132.120482 C168.010835,132.120482 150.646409,148.988019 150.646409,169.795181 C150.646409,190.602342 168.010835,207.46988 189.430939,207.46988 L228.21547,207.46988 C249.635574,207.46988 267,190.602342 267,169.795181 C267,148.988019 249.635574,132.120482 228.21547,132.120482 L228.21547,132.120482 Z" id="路径" stroke="#000000" fill="#FFF8F4"></path>
            <path d="M150.009758,58.0481928 C183.214087,58.0481928 210.116022,85.4295848 210.116022,119.226701 C210.12142,128.692969 207.953982,138.038788 203.774705,146.569904 L192.473173,169.578675 C190.19509,174.207474 189.914583,179.54242 191.695099,184.376847 L194.184937,191.13627 C203.327312,215.95901 190.97538,243.645913 166.563293,252.944893 C161.285865,254.960992 155.672751,255.996944 150.009758,256 C123.944263,256 102.81954,234.499688 102.81954,207.996639 C102.81954,202.230125 103.850489,196.520895 105.834579,191.13627 L108.324417,184.376847 C110.104933,179.54242 109.824426,174.207474 107.546343,169.578675 L96.2642628,146.569904 C81.3835882,116.362538 93.4242909,79.6248825 123.107833,64.5021053 C131.491585,60.2822394 140.672864,58.0481928 150.009758,58.0481928 Z" id="路径" stroke="#393939" fill="#383838"></path>
            <path d="M192.371546,183.191808 L193,184.862138 C177.838548,187.614386 162.873487,189 148.124458,189 C134.219913,189 120.511761,187.766234 107,185.317682 L107.785567,183.191808 C109.337063,179.091908 109.454898,174.631369 108.178351,170.512488 C121.297328,172.999001 134.612697,174.232767 148.124458,174.232767 C162.55926,174.232767 177.249372,172.828172 192.175154,170 C190.721854,174.251748 190.780772,178.921079 192.371546,183.191808 L192.371546,183.191808 Z M196.43179,218.461466 L192.848721,219.392879 C177.889896,223.118534 163.126867,225 148.540054,225 C133.736628,225.005236 119.003616,223.061891 104.760037,219.225225 C103.318946,214.14842 102.756827,208.882151 103.09577,203.633361 C117.995856,208.234544 133.150477,210.525822 148.540054,210.525822 C164.654077,210.525822 181.081373,208.011005 197.861102,203 C198.272274,208.253173 197.763204,213.469089 196.43179,218.461466 L196.43179,218.461466 Z" id="形状" fill="#FFBA8E"></path>
        </g>
    </g>
</svg>